<svg xmlns="http://www.w3.org/2000/svg" width="105.633" height="33.481" viewBox="0 0 105.633 33.481"><defs><style>.a{fill:#23282f;}.b{fill:#3264ff;}</style></defs><g transform="translate(-303 -50.134)"><g transform="translate(303 50.134)"><path class="a" d="M765.776,712.371v11.5c-1.627-2.034-4.144-3.458-8.06-3.458-6.915,0-11.821,5.263-11.821,12.686,0,7.372,4.907,12.737,11.821,12.737,3.585,0,6.3-1.221,7.932-3.1l.127,2.592h6.407V712.371Zm-7.01,27.4a6.649,6.649,0,1,1,6.649-6.649A6.657,6.657,0,0,1,758.766,739.775Z" transform="translate(-745.895 -712.371)"></path><path class="b" d="M846.727,746.256a6.649,6.649,0,1,1,6.649-6.65A6.657,6.657,0,0,1,846.727,746.256Zm0-9.386a2.736,2.736,0,1,0,2.736,2.736A2.707,2.707,0,0,0,846.727,736.87Z" transform="translate(-747.743 -712.775)"></path><path class="a" d="M799.939,743.71a19,19,0,0,1-9.2,2.288c-8.644,0-14.186-5.11-14.186-12.712,0-7.474,5.288-12.712,12.534-12.712,7.5,0,13.194,5.644,11.592,14.669H783.032c.661,3.407,3.712,5.033,7.728,5.033a19.343,19.343,0,0,0,8.263-1.856Zm-5.111-12.838c-.177-2.721-2.237-4.8-5.593-4.8-3.483,0-5.821,2.033-6.1,4.8Z" transform="translate(-746.496 -712.532)"></path><path class="a" d="M817.587,720.575a18.622,18.622,0,0,1,7.678,1.628l-.56,5.669a16.309,16.309,0,0,0-6.407-1.323c-4.449,0-7.856,2.288-7.856,6.686,0,4.17,3.229,6.763,7.653,6.763a15.347,15.347,0,0,0,6.712-1.6l.763,5.8a18.4,18.4,0,0,1-7.907,1.8c-8.034,0-13.754-5.186-13.754-12.737C803.91,725.329,809.706,720.575,817.587,720.575Z" transform="translate(-747.033 -712.532)"></path><path class="a" d="M829.507,745.5V721.094h6.533V745.5Z" transform="translate(-747.535 -712.542)"></path></g></g></svg>